<svg height="511pt" viewBox="0 0 511 511.97524" width="511pt" xmlns="http://www.w3.org/2000/svg"><path d="m351.183594 363.863281-128.339844 132.09375c-4.59375 4.730469-10.902344 7.398438-17.496094 7.398438-6.589844 0-12.902344-2.667969-17.492187-7.398438l-128.257813-132.09375c-9.726562-10.035156-9.726562-25.980469 0-36.011719l128.257813-132.097656c1.503906-1.578125 3.230469-2.925781 5.121093-4.011718 9.664063-5.832032 22.082032-4.164063 29.867188 4.011718l7.59375 7.851563 76.882812 77.996093v1.023438l43.863282 45.226562c9.644531 10.066407 9.644531 25.945313 0 36.011719zm0 0" fill="#c52828"/><path d="m325.582031 363.347656-128.339843 132.097656c-1.503907 1.578126-3.230469 2.929688-5.121094 4.011719-1.550782-1-2.984375-2.171875-4.265625-3.5l-128.257813-132.09375c-9.726562-10.035156-9.726562-25.980469 0-36.011719l128.257813-132.097656c1.503906-1.578125 3.230469-2.925781 5.121093-4.011718 1.550782 1 2.984376 2.171874 4.265626 3.5l7.59375 7.851562 76.886718 77.996094v1.023437l43.859375 45.226563c9.644531 10.066406 9.644531 25.941406 0 36.007812zm0 0" fill="#f44335"/><path d="m166.09375 312.746094c-6.664062 6.660156-17.46875 6.65625-24.128906-.007813-6.664063-6.664062-6.664063-17.46875 0-24.132812 6.660156-6.664063 17.464844-6.667969 24.128906-.007813 3.207031 3.199219 5.007812 7.542969 5.007812 12.074219s-1.800781 8.875-5.007812 12.074219zm0 0" fill="#37474f"/><path d="m218.457031 347.007812c0 9.429688-7.644531 17.074219-17.078125 17.074219-9.429687 0-17.074218-7.644531-17.074218-17.074219 0-9.429687 7.644531-17.074218 17.074218-17.074218 9.433594 0 17.078125 7.644531 17.078125 17.074218zm0 0" fill="#37474f"/><path d="m260.390625 405.417969c-6.648437 6.644531-17.421875 6.644531-24.066406 0s-6.644531-17.417969 0-24.0625 17.417969-6.644531 24.066406 0c3.230469 3.167969 5.054687 7.503906 5.054687 12.03125 0 4.527343-1.824218 8.863281-5.054687 12.03125zm0 0" fill="#37474f"/><path d="m256.035156 42.667969h187.734375c14.140625 0 25.601563 11.460937 25.601563 25.597656v187.734375c0 14.136719-11.460938 25.601562-25.601563 25.601562h-187.734375c-14.136718 0-25.597656-11.464843-25.597656-25.601562v-187.734375c0-14.136719 11.460938-25.597656 25.597656-25.597656zm0 0" fill="#283593"/><path d="m256.035156 42.667969h162.136719c14.136719 0 25.597656 11.460937 25.597656 25.597656v187.734375c0 14.136719-11.460937 25.601562-25.597656 25.601562h-162.136719c-14.136718 0-25.597656-11.464843-25.597656-25.601562v-187.734375c0-14.136719 11.460938-25.597656 25.597656-25.597656zm0 0" fill="#3f51b5"/><g fill="#37474f"><path d="m324.304688 93.867188c0 9.425781-7.640626 17.066406-17.066407 17.066406s-17.066406-7.640625-17.066406-17.066406c0-9.425782 7.640625-17.066407 17.066406-17.066407s17.066407 7.640625 17.066407 17.066407zm0 0"/><path d="m324.304688 162.132812c0 9.425782-7.640626 17.066407-17.066407 17.066407s-17.066406-7.640625-17.066406-17.066407c0-9.425781 7.640625-17.066406 17.066406-17.066406s17.066407 7.640625 17.066407 17.066406zm0 0"/><path d="m324.304688 230.398438c0 9.425781-7.640626 17.066406-17.066407 17.066406s-17.066406-7.640625-17.066406-17.066406c0-9.425782 7.640625-17.066407 17.066406-17.066407s17.066407 7.640625 17.066407 17.066407zm0 0"/><path d="m409.636719 93.867188c0 9.425781-7.640625 17.066406-17.066407 17.066406-9.425781 0-17.066406-7.640625-17.066406-17.066406 0-9.425782 7.640625-17.066407 17.066406-17.066407 9.425782 0 17.066407 7.640625 17.066407 17.066407zm0 0"/><path d="m409.636719 162.132812c0 9.425782-7.640625 17.066407-17.066407 17.066407-9.425781 0-17.066406-7.640625-17.066406-17.066407 0-9.425781 7.640625-17.066406 17.066406-17.066406 9.425782 0 17.066407 7.640625 17.066407 17.066406zm0 0"/><path d="m409.636719 230.398438c0 9.425781-7.640625 17.066406-17.066407 17.066406-9.425781 0-17.066406-7.640625-17.066406-17.066406 0-9.425782 7.640625-17.066407 17.066406-17.066407 9.425782 0 17.066407 7.640625 17.066407 17.066407zm0 0"/></g><path d="m53.480469 369.808594 128.230469 132.078125c6.171874 6.445312 14.703124 10.089843 23.625 10.089843 8.921874 0 17.453124-3.644531 23.625-10.089843l128.367187-132.09375c12.792969-13.398438 12.792969-34.484375 0-47.882813l-30.839844-31.777344h117.28125c18.851563 0 34.132813-15.28125 34.132813-34.132812v-187.734375c0-18.851563-15.28125-34.132813-34.132813-34.132813h-187.734375c-18.851562 0-34.132812 15.28125-34.132812 34.132813v116.140625c-12.992188-7.878906-29.722656-5.628906-40.175782 5.402344l-128.203124 132.058594c-12.953126 13.347656-12.972657 34.570312-.042969 47.941406zm185.488281-301.542969c0-9.425781 7.640625-17.066406 17.066406-17.066406h187.734375c9.425781 0 17.066407 7.640625 17.066407 17.066406v187.734375c0 9.425781-7.640626 17.066406-17.066407 17.066406h-187.734375c-9.425781 0-17.066406-7.640625-17.066406-17.066406zm-173.226562 265.53125 128.25-132.113281c3.003906-3.023438 7.09375-4.726563 11.359374-4.726563 4.265626 0 8.355469 1.703125 11.363282 4.726563l5.1875 5.371094v48.945312c0 18.851562 15.28125 34.132812 34.132812 34.132812h46.679688l42.359375 43.675782c6.4375 6.746094 6.4375 17.359375 0 24.105468l-128.367188 132.113282c-3.003906 3.03125-7.09375 4.738281-11.363281 4.738281-4.265625 0-8.359375-1.707031-11.363281-4.738281l-128.238281-132.121094c-6.511719-6.71875-6.511719-17.390625 0-24.109375zm0 0"/><path d="m153.988281 326.238281c10.347657-.007812 19.675781-6.242187 23.636719-15.804687 3.960938-9.558594 1.773438-20.5625-5.539062-27.886719-8.191407-8.199219-20.871094-9.875-30.90625-4.082031-10.039063 5.792968-14.933594 17.609375-11.933594 28.800781 3 11.195313 13.148437 18.980469 24.742187 18.972656zm-6.035156-31.625c3.332031-3.332031 8.734375-3.332031 12.066406 0 3.324219 3.332031 3.324219 8.726563 0 12.058594-2.140625 2.21875-5.316406 3.105469-8.296875 2.324219-2.984375-.777344-5.316406-3.109375-6.097656-6.09375-.78125-2.980469.109375-6.15625 2.328125-8.296875zm0 0"/><path d="m183.257812 365.097656c10.019532 9.859375 26.117188 9.792969 36.054688-.148437 9.9375-9.941407 10-26.039063.140625-36.058594-10.128906-9.664063-26.066406-9.664063-36.195313 0-4.804687 4.800781-7.5 11.3125-7.5 18.105469 0 6.789062 2.695313 13.300781 7.5 18.101562zm12.0625-24.132812c3.335938-3.328125 8.734376-3.328125 12.066407 0 1.605469 1.601562 2.503906 3.773437 2.503906 6.039062s-.898437 4.4375-2.503906 6.039063c-3.375 3.222656-8.6875 3.222656-12.066407 0-1.601562-1.601563-2.5-3.773438-2.5-6.039063s.898438-4.4375 2.5-6.039062zm0 0"/><path d="m230.257812 411.496094c6.46875 6.464844 15.894532 8.992187 24.730469 6.625 8.835938-2.367188 15.734375-9.269532 18.101563-18.105469 2.367187-8.832031-.15625-18.261719-6.625-24.726563-10-10-26.210938-10-36.207032 0-10 9.996094-10 26.207032 0 36.207032zm12.074219-24.132813c3.332031-3.332031 8.734375-3.332031 12.066407 0 2.441406 2.4375 3.171874 6.109375 1.851562 9.296875-1.320312 3.191406-4.433594 5.269532-7.882812 5.269532-3.453126 0-6.566407-2.078126-7.886719-5.269532-1.320313-3.1875-.589844-6.859375 1.851562-9.296875zm0 0"/><path d="m307.238281 119.464844c14.136719 0 25.597657-11.460938 25.597657-25.597656 0-14.140626-11.460938-25.601563-25.597657-25.601563-14.140625 0-25.601562 11.460937-25.601562 25.601563 0 14.136718 11.460937 25.597656 25.601562 25.597656zm0-34.132813c4.710938 0 8.53125 3.820313 8.53125 8.535157 0 4.710937-3.820312 8.53125-8.53125 8.53125-4.714843 0-8.535156-3.820313-8.535156-8.53125 0-4.714844 3.820313-8.535157 8.535156-8.535157zm0 0"/><path d="m307.238281 187.734375c14.136719 0 25.597657-11.460937 25.597657-25.601563 0-14.136718-11.460938-25.597656-25.597657-25.597656-14.140625 0-25.601562 11.460938-25.601562 25.597656 0 14.140626 11.460937 25.601563 25.601562 25.601563zm0-34.132813c4.710938 0 8.53125 3.820313 8.53125 8.53125 0 4.714844-3.820312 8.535157-8.53125 8.535157-4.714843 0-8.535156-3.820313-8.535156-8.535157 0-4.710937 3.820313-8.53125 8.535156-8.53125zm0 0"/><path d="m307.238281 256c14.136719 0 25.597657-11.460938 25.597657-25.601562 0-14.136719-11.460938-25.597657-25.597657-25.597657-14.140625 0-25.601562 11.460938-25.601562 25.597657 0 14.140624 11.460937 25.601562 25.601562 25.601562zm0-34.132812c4.710938 0 8.53125 3.820312 8.53125 8.53125 0 4.714843-3.820312 8.535156-8.53125 8.535156-4.714843 0-8.535156-3.820313-8.535156-8.535156 0-4.710938 3.820313-8.53125 8.535156-8.53125zm0 0"/><path d="m392.570312 119.464844c14.136719 0 25.601563-11.460938 25.601563-25.597656 0-14.140626-11.464844-25.601563-25.601563-25.601563-14.140624 0-25.601562 11.460937-25.601562 25.601563 0 14.136718 11.460938 25.597656 25.601562 25.597656zm0-34.132813c4.710938 0 8.53125 3.820313 8.53125 8.535157 0 4.710937-3.820312 8.53125-8.53125 8.53125-4.714843 0-8.535156-3.820313-8.535156-8.53125 0-4.714844 3.820313-8.535157 8.535156-8.535157zm0 0"/><path d="m392.570312 187.734375c14.136719 0 25.601563-11.460937 25.601563-25.601563 0-14.136718-11.464844-25.597656-25.601563-25.597656-14.140624 0-25.601562 11.460938-25.601562 25.597656 0 14.140626 11.460938 25.601563 25.601562 25.601563zm0-34.132813c4.710938 0 8.53125 3.820313 8.53125 8.53125 0 4.714844-3.820312 8.535157-8.53125 8.535157-4.714843 0-8.535156-3.820313-8.535156-8.535157 0-4.710937 3.820313-8.53125 8.535156-8.53125zm0 0"/><path d="m392.570312 256c14.136719 0 25.601563-11.460938 25.601563-25.601562 0-14.136719-11.464844-25.597657-25.601563-25.597657-14.140624 0-25.601562 11.460938-25.601562 25.597657 0 14.140624 11.460938 25.601562 25.601562 25.601562zm0-34.132812c4.710938 0 8.53125 3.820312 8.53125 8.53125 0 4.714843-3.820312 8.535156-8.53125 8.535156-4.714843 0-8.535156-3.820313-8.535156-8.535156 0-4.710938 3.820313-8.53125 8.535156-8.53125zm0 0"/><path d="m477.902344 0h-42.664063c-4.714843 0-8.535156 3.820312-8.535156 8.535156 0 4.710938 3.820313 8.53125 8.535156 8.53125h42.664063c9.425781 0 17.066406 7.640625 17.066406 17.066406v42.667969c0 4.710938 3.820312 8.53125 8.535156 8.53125 4.710938 0 8.53125-3.820312 8.53125-8.53125v-42.667969c0-18.851562-15.28125-34.132812-34.132812-34.132812zm0 0"/><path d="m401.101562 17.066406c4.714844 0 8.535157-3.820312 8.535157-8.53125 0-4.714844-3.820313-8.535156-8.535157-8.535156h-8.53125c-4.714843 0-8.535156 3.820312-8.535156 8.535156 0 4.710938 3.820313 8.53125 8.535156 8.53125zm0 0"/><path d="m503.503906 102.398438c-4.714844 0-8.535156 3.820312-8.535156 8.535156v8.53125c0 4.714844 3.820312 8.535156 8.535156 8.535156 4.710938 0 8.53125-3.820312 8.53125-8.535156v-8.53125c0-4.714844-3.820312-8.535156-8.53125-8.535156zm0 0"/><path d="m40.636719 288.675781-30.171875 30.164063c-13.304688 13.339844-13.304688 34.929687 0 48.273437l30.171875 30.164063c2.144531 2.21875 5.316406 3.109375 8.300781 2.328125s5.3125-3.113281 6.09375-6.09375c.78125-2.984375-.109375-6.15625-2.328125-8.300781l-30.171875-30.171876c-6.664062-6.664062-6.664062-17.46875 0-24.132812l30.171875-30.164062c3.234375-3.351563 3.1875-8.671876-.101563-11.964844-3.292968-3.289063-8.613281-3.335938-11.964843-.101563zm0 0"/><path d="m64.769531 409.351562c-3.332031 3.332032-3.332031 8.734376 0 12.066407l6.035157 6.035156c3.347656 3.234375 8.667968 3.1875 11.960937-.105469 3.292969-3.292968 3.339844-8.613281.105469-11.960937l-6.035156-6.035157c-3.332032-3.332031-8.734376-3.332031-12.066407 0zm0 0"/><path d="m76.835938 276.597656 6.035156-6.03125c3.234375-3.347656 3.1875-8.671875-.105469-11.960937-3.292969-3.292969-8.613281-3.339844-11.960937-.105469l-6.035157 6.035156c-2.21875 2.140625-3.105469 5.3125-2.324219 8.296875.777344 2.984375 3.109376 5.3125 6.09375 6.09375 2.984376.78125 6.15625-.109375 8.296876-2.328125zm0 0"/></svg>